Coordinates
version=1
nRows=60
nColumns=12
inDegrees=yes

Units are S.I. units (second, meters, Newtons, ...)
Angles are in degrees

endheader
time	SC_y	SC_z	SC_x	AC_y	AC_z	AC_x	GH_y	GH_z	GH_yy	EL_x	PS_y
       0.0              -46.57          13.01          25.25          36.83         -13.81          9.914         -163.2          8.088         -39.99          13.33          50.82
  0.001007              -46.57          13.01          25.25          36.83         -13.81           9.91         -163.1          8.085         -39.98          13.34          50.83
  0.002015              -46.57          13.01          25.26          36.83         -13.81          9.906         -163.1          8.082         -39.97          13.35          50.84
  0.003022              -46.57          13.01          25.26          36.84         -13.81          9.902         -163.0          8.078         -39.95          13.37          50.85
   0.00403              -46.57          13.01          25.26          36.84         -13.81          9.898         -163.0          8.075         -39.94          13.38          50.86
  0.005037              -46.57          13.02          25.26          36.85         -13.81          9.893         -162.9          8.071         -39.92           13.4          50.87
  0.006045              -46.57          13.02          25.27          36.85          -13.8          9.888         -162.9          8.067          -39.9          13.41          50.88
  0.007052              -46.57          13.02          25.27          36.86          -13.8          9.882         -162.8          8.062         -39.88          13.43           50.9
   0.00806              -46.57          13.02          25.27          36.86          -13.8          9.876         -162.7          8.058         -39.86          13.45          50.91
  0.009067              -46.57          13.02          25.27          36.87          -13.8           9.87         -162.7          8.053         -39.84          13.47          50.93
   0.01007              -46.58          13.02          25.28          36.87          -13.8          9.863         -162.6          8.047         -39.82          13.49          50.95
   0.01108              -46.58          13.02          25.28          36.88          -13.8          9.856         -162.5          8.041          -39.8          13.52          50.96
   0.01209              -46.58          13.02          25.28          36.89         -13.79          9.848         -162.4          8.035         -39.77          13.54          50.98
    0.0131              -46.58          13.03          25.29          36.89         -13.79           9.84         -162.3          8.028         -39.74          13.57          51.01
    0.0141              -46.58          13.03          25.29           36.9         -13.79          9.831         -162.2          8.021         -39.71           13.6          51.03
   0.01511              -46.58          13.03           25.3          36.91         -13.79          9.821         -162.1          8.013         -39.68          13.63          51.05
   0.01612              -46.58          13.03           25.3          36.92         -13.78           9.81         -162.0          8.004         -39.64          13.67          51.08
   0.01713              -46.58          13.04          25.31          36.93         -13.78          9.798         -161.9          7.995          -39.6           13.7          51.11
   0.01813              -46.58          13.04          25.31          36.94         -13.78          9.785         -161.7          7.984         -39.56          13.75          51.14
   0.01914              -46.59          13.04          25.32          36.96         -13.77          9.771         -161.6          7.973         -39.51          13.79          51.18
   0.02015              -46.59          13.04          25.32          36.97         -13.77          9.756         -161.4           7.96         -39.46          13.84          51.22
   0.02116              -46.59          13.05          25.33          36.99         -13.77          9.738         -161.2          7.947          -39.4           13.9          51.26
   0.02216              -46.59          13.05          25.34          37.01         -13.76           9.72         -161.0          7.932         -39.34          13.96          51.31
   0.02317               -46.6          13.06          25.35          37.02         -13.76          9.699         -160.7          7.915         -39.26          14.03          51.36
   0.02418               -46.6          13.06          25.36          37.05         -13.75          9.676         -160.5          7.896         -39.19           14.1          51.42
   0.02519               -46.6          13.07          25.37          37.07         -13.74           9.65         -160.2          7.875          -39.1          14.19          51.49
   0.02619               -46.6          13.07          25.38           37.1         -13.74          9.621         -159.9          7.852          -39.0          14.28          51.56
    0.0272              -46.61          13.08           25.4          37.13         -13.73          9.588         -159.5          7.826         -38.89          14.38          51.64
   0.02821              -46.61          13.09          25.42          37.16         -13.72          9.551         -159.1          7.796         -38.77           14.5          51.74
   0.02922              -46.62           13.1          25.43           37.2         -13.71           9.51         -158.6          7.763         -38.63          14.64          51.84
   0.03022              -46.62          13.11          25.46          37.24          -13.7          9.462         -158.1          7.725         -38.47           14.8          51.96
   0.03123              -46.63          13.12          25.48          37.29         -13.68          9.407         -157.5          7.681         -38.28          14.97           52.1
   0.03224              -46.64          13.13          25.51          37.35         -13.67          9.344         -156.8           7.63         -38.07          15.18          52.26
   0.03325              -46.65          13.15          25.54          37.42         -13.65           9.27         -156.0          7.571         -37.82          15.42          52.45
   0.03425              -46.66          13.17          25.58           37.5         -13.63          9.185         -155.0          7.502         -37.53           15.7          52.67
   0.03526              -46.67          13.19          25.63          37.59          -13.6          9.083         -153.9           7.42         -37.19          16.02          52.92
   0.03627              -46.68          13.22          25.68           37.7         -13.57          8.963         -152.5          7.323         -36.78          16.42          53.23
   0.03728               -46.7          13.25          25.74          37.84         -13.53          8.818         -150.9          7.208         -36.29          16.88          53.59
   0.03828              -46.72          13.29          25.82           38.0         -13.49          8.644         -149.0          7.067         -35.71          17.45          54.04
   0.03929              -46.75          13.33          25.92           38.2         -13.43          8.431         -146.6          6.896         -34.99          18.14          54.58
    0.0403              -46.78          13.39          26.04          38.44         -13.37          8.167         -143.6          6.684          -34.1           19.0          55.24
   0.04131              -46.82          13.46          26.18          38.74         -13.28          7.839         -140.0          6.421         -32.99          20.06          56.08
   0.04231              -46.86          13.55          26.37          39.12         -13.18          7.425         -135.4          6.088         -31.59          21.41          57.13
   0.04332              -46.93          13.67           26.6          39.61         -13.05            6.9         -129.5          5.666         -29.82          23.11          58.46
   0.04433              -47.01          13.81           26.9          40.23         -12.87          6.227         -122.0          5.125         -27.55           25.3          60.16
   0.04534              -47.11           14.0          27.29          41.03         -12.66          5.363         -112.3          4.431         -24.64           28.1          62.35
   0.04634              -47.24          14.24          27.78          42.05         -12.38           4.26         -99.99          3.545         -20.91          31.68          65.15
   0.04735               -47.4          14.54          28.41          43.33         -12.02          2.873          -84.5          2.431         -16.23          36.19          68.66
   0.04836               -47.6          14.91          29.16          44.89         -11.59          1.183         -65.62          1.073         -10.53          41.67          72.95
   0.04937              -47.84          15.33          30.04           46.7          -11.1         -0.776         -43.74        -0.5014         -3.922          48.03          77.91
   0.05037              -48.09          15.79          30.99          48.65         -10.56         -2.897         -20.04         -2.206          3.236          54.92          83.29
   0.05138              -48.34          16.26          31.94          50.61         -10.02         -5.019          3.655          -3.91          10.39          61.81          88.67
   0.05239              -48.57          16.68          32.82          52.42         -9.523         -6.978          25.54         -5.484           17.0          68.17          93.63
    0.0534              -48.77          17.05          33.57          53.98         -9.094         -8.668          44.42         -6.842          22.71          73.66          97.92
    0.0544              -48.93          17.35          34.19          55.26         -8.742         -10.05          59.91         -7.957          27.39          78.16          101.4
   0.05541              -49.06          17.59          34.69          56.28         -8.462         -11.16          72.23         -8.843          31.11          81.74          104.2
   0.05642              -49.17          17.78          35.07          57.08         -8.242         -12.02          81.88         -9.537          34.02          84.54          106.4
   0.05743              -49.25          17.92          35.38           57.7         -8.071         -12.69           89.4         -10.08          36.29          86.73          108.1
   0.05843              -49.31          18.04          35.61          58.19         -7.938         -13.22          95.27          -10.5          38.07          88.43          109.5
   0.05944              -49.36          18.13           35.8          58.57         -7.833         -13.63          99.89         -10.83          39.46          89.78          110.5
